<svg width="542" height="296" viewBox="0 0 542 296" fill="none" xmlns="http://www.w3.org/2000/svg">
<path d="M235 160H307M235 208H271M175 52V244C175 250.365 177.529 256.47 182.029 260.971C186.53 265.471 192.635 268 199 268H343C349.365 268 355.47 265.471 359.971 260.971C364.471 256.47 367 250.365 367 244V104.104C367 100.907 366.36 97.7417 365.12 94.7949C363.879 91.8481 362.062 89.1789 359.776 86.944L306.496 34.84C302.012 30.4559 295.991 28.0008 289.72 28H199C192.635 28 186.53 30.5286 182.029 35.0294C177.529 39.5303 175 45.6348 175 52Z" stroke="#27272E" stroke-width="9" stroke-linecap="round" stroke-linejoin="round"/>
<path d="M295 28V76C295 82.3652 297.529 88.4697 302.029 92.9706C306.53 97.4714 312.635 100 319 100H367" stroke="#27272E" stroke-width="9" stroke-linejoin="round"/>
<g clip-path="url(#clip0_2876_1590)">
<path fill-rule="evenodd" clip-rule="evenodd" d="M322.061 20.2847L317.999 23.2667C317.283 23.8376 316.525 24.3531 315.731 24.8087C315.196 25.093 314.635 25.326 314.057 25.5047C313.403 25.7027 312.725 25.8047 311.363 26.0147L306.383 26.7767C302.453 27.3767 300.485 27.6827 298.943 28.6007C297.563 29.4107 296.417 30.5627 295.601 31.9427C294.683 33.5027 294.383 35.4707 293.777 39.3827L293.015 44.3627C292.805 45.7247 292.703 46.4087 292.505 47.0627C292.325 47.6427 292.093 48.1987 291.809 48.7307C291.485 49.3307 291.083 49.8887 290.267 50.9987L287.285 55.0607C284.933 58.2647 283.757 59.8667 283.301 61.6007C282.908 63.1502 282.908 64.7733 283.301 66.3227C283.751 68.0747 284.933 69.6827 287.285 72.8627L290.267 76.9247C291.083 78.0347 291.491 78.5927 291.809 79.1927C292.089 79.7287 292.321 80.2887 292.505 80.8727C292.703 81.5207 292.805 82.1987 293.015 83.5607L293.777 88.5407C294.377 92.4707 294.683 94.4327 295.601 95.9807C296.411 97.3607 297.563 98.5127 298.943 99.3227C300.503 100.241 302.471 100.541 306.383 101.147L311.363 101.909C312.725 102.119 313.409 102.227 314.057 102.425C314.637 102.601 315.195 102.833 315.731 103.121C316.331 103.439 316.889 103.841 317.999 104.663L322.061 107.645C325.265 109.997 326.867 111.173 328.601 111.629C330.149 112.031 331.775 112.031 333.323 111.629C335.075 111.173 336.683 109.997 339.863 107.645L343.925 104.663C345.035 103.847 345.593 103.439 346.193 103.121C346.729 102.833 347.287 102.601 347.867 102.425C348.521 102.227 349.199 102.125 350.561 101.909L355.541 101.147C359.471 100.547 361.433 100.247 362.981 99.3227C364.361 98.5127 365.513 97.3607 366.323 95.9807C367.241 94.4207 367.541 92.4527 368.147 88.5407L368.909 83.5607C369.119 82.1987 369.221 81.5207 369.419 80.8667C369.599 80.2867 369.831 79.7287 370.115 79.1927C370.439 78.5927 370.841 78.0347 371.657 76.9247L374.639 72.8627C376.991 69.6587 378.167 68.0627 378.623 66.3227C379.016 64.7733 379.016 63.1502 378.623 61.6007C378.173 59.8487 376.991 58.2407 374.639 55.0607L371.657 50.9987C371.086 50.283 370.57 49.5248 370.115 48.7307C369.83 48.1959 369.597 47.6354 369.419 47.0567C369.18 46.173 369.01 45.2724 368.909 44.3627L368.147 39.3827C367.547 35.4527 367.241 33.4847 366.323 31.9427C365.505 30.5676 364.356 29.4188 362.981 28.6007C361.421 27.6827 359.453 27.3827 355.541 26.7767L350.561 26.0147C349.651 25.9135 348.75 25.743 347.867 25.5047C347.287 25.3297 346.726 25.0965 346.193 24.8087C345.399 24.3531 344.64 23.8376 343.925 23.2667L339.863 20.2847C336.659 17.9327 335.057 16.7567 333.323 16.3007C331.773 15.9076 330.15 15.9076 328.601 16.3007C326.849 16.7567 325.241 17.9327 322.061 20.2847ZM354.041 52.7447C354.388 52.3211 354.647 51.8323 354.802 51.307C354.957 50.7816 355.005 50.2306 354.944 49.6863C354.882 49.1421 354.712 48.6157 354.444 48.1383C354.175 47.6609 353.814 47.2421 353.381 46.9067C352.5 46.2176 351.385 45.8997 350.273 46.0207C349.161 46.1418 348.141 46.6922 347.429 47.5547L327.569 71.9147L316.949 63.7547C316.081 63.0487 314.972 62.7094 313.858 62.8091C312.744 62.9089 311.713 63.4398 310.985 64.2887C310.629 64.7051 310.36 65.1885 310.194 65.7105C310.029 66.2325 309.969 66.7824 310.019 67.3277C310.07 67.8731 310.229 68.4028 310.487 68.8856C310.746 69.3684 311.099 69.7945 311.525 70.1387L325.445 80.9987C326.324 81.7137 327.45 82.0519 328.577 81.9395C329.705 81.8271 330.742 81.2732 331.463 80.3987L354.023 52.6787L354.041 52.7447Z" fill="url(#paint0_linear_2876_1590)"/>
</g>
<defs>
<linearGradient id="paint0_linear_2876_1590" x1="363.25" y1="34.75" x2="302.5" y2="102.25" gradientUnits="userSpaceOnUse">
<stop stop-color="#2C82D2"/>
<stop offset="1" stop-color="#6BC8ED"/>
</linearGradient>
<clipPath id="clip0_2876_1590">
<rect width="96" height="96" fill="white" transform="translate(283 16)"/>
</clipPath>
</defs>
</svg>
