<svg width="542" height="296" viewBox="0 0 542 296" fill="none" xmlns="http://www.w3.org/2000/svg">
<path d="M131 125.5C132.193 125.5 133.338 125.974 134.182 126.818C135.026 127.662 135.5 128.807 135.5 130V132.124C136.78 132.484 137.988 132.988 139.124 133.636C139.99 133.059 141.028 132.8 142.063 132.903C143.098 133.006 144.066 133.464 144.801 134.199C145.536 134.934 145.994 135.902 146.097 136.937C146.2 137.972 145.941 139.01 145.364 139.876C146.008 141.008 146.512 142.216 146.876 143.5H149C150.193 143.5 151.338 143.974 152.182 144.818C153.026 145.662 153.5 146.807 153.5 148C153.5 149.193 153.026 150.338 152.182 151.182C151.338 152.026 150.193 152.5 149 152.5H146.876C146.516 153.78 146.012 154.988 145.364 156.124C145.941 156.99 146.2 158.028 146.097 159.063C145.994 160.098 145.536 161.066 144.801 161.801C144.066 162.536 143.098 162.994 142.063 163.097C141.028 163.2 139.99 162.941 139.124 162.364C137.982 163.013 136.765 163.521 135.5 163.876V166C135.5 167.193 135.026 168.338 134.182 169.182C133.338 170.026 132.193 170.5 131 170.5C129.807 170.5 128.662 170.026 127.818 169.182C126.974 168.338 126.5 167.193 126.5 166V163.876C125.235 163.521 124.018 163.013 122.876 162.364C122.01 162.941 120.972 163.2 119.937 163.097C118.902 162.994 117.934 162.536 117.199 161.801C116.464 161.066 116.006 160.098 115.903 159.063C115.8 158.028 116.059 156.99 116.636 156.124C115.987 154.982 115.479 153.765 115.124 152.5H113C111.807 152.5 110.662 152.026 109.818 151.182C108.974 150.338 108.5 149.193 108.5 148C108.5 146.807 108.974 145.662 109.818 144.818C110.662 143.974 111.807 143.5 113 143.5H115.124C115.484 142.22 115.988 141.012 116.636 139.876C116.059 139.01 115.8 137.972 115.903 136.937C116.006 135.902 116.464 134.934 117.199 134.199C117.934 133.464 118.902 133.006 119.937 132.903C120.972 132.8 122.01 133.059 122.876 133.636C124.008 132.992 125.216 132.488 126.5 132.124V130C126.5 128.807 126.974 127.662 127.818 126.818C128.662 125.974 129.807 125.5 131 125.5ZM125.696 153.304C126.391 154.004 127.217 154.559 128.127 154.938C129.038 155.316 130.014 155.511 131 155.511C131.986 155.511 132.962 155.316 133.873 154.938C134.783 154.559 135.609 154.004 136.304 153.304C137.353 152.255 138.067 150.919 138.356 149.464C138.645 148.009 138.497 146.501 137.929 145.131C137.361 143.76 136.4 142.589 135.167 141.765C133.933 140.941 132.483 140.501 131 140.501C129.517 140.501 128.067 140.941 126.833 141.765C125.6 142.589 124.639 143.76 124.071 145.131C123.503 146.501 123.355 148.009 123.644 149.464C123.933 150.919 124.647 152.255 125.696 153.304Z" fill="#27272E"/>
<path d="M96.5 148C96.5 138.85 100.135 130.075 106.605 123.605C113.075 117.135 121.85 113.5 131 113.5C140.15 113.5 148.925 117.135 155.395 123.605C161.865 130.075 165.5 138.85 165.5 148C165.5 157.15 161.865 165.925 155.395 172.395C148.925 178.865 140.15 182.5 131 182.5C121.85 182.5 113.075 178.865 106.605 172.395C100.135 165.925 96.5 157.15 96.5 148ZM131 122.5C127.651 122.5 124.335 123.16 121.242 124.441C118.148 125.723 115.337 127.601 112.969 129.969C110.601 132.337 108.723 135.148 107.441 138.242C106.16 141.335 105.5 144.651 105.5 148C105.5 151.349 106.16 154.665 107.441 157.758C108.723 160.852 110.601 163.663 112.969 166.031C115.337 168.399 118.148 170.277 121.242 171.559C124.335 172.84 127.651 173.5 131 173.5C137.763 173.5 144.249 170.813 149.031 166.031C153.813 161.249 156.5 154.763 156.5 148C156.5 141.237 153.813 134.751 149.031 129.969C144.249 125.187 137.763 122.5 131 122.5Z" fill="#27272E"/>
<path d="M146.798 89.5H115.202C108.65 89.5 103.454 89.5 99.272 89.842C94.988 90.19 91.37 90.922 88.064 92.602C82.6999 95.336 78.3395 99.6986 75.608 105.064C73.958 108.304 73.22 111.844 72.866 116.002C71.3993 116.76 70.1695 117.908 69.3112 119.318C68.453 120.729 67.9993 122.349 68 124V133C67.999 134.581 68.4144 136.134 69.2043 137.503C69.9943 138.873 71.131 140.01 72.5 140.8V155.2C71.131 155.99 69.9943 157.127 69.2043 158.497C68.4144 159.866 67.999 161.419 68 163V172C68 175.48 69.98 178.498 72.86 179.998C73.22 184.162 73.958 187.702 75.608 190.942C78.3415 196.303 82.7017 200.661 88.064 203.392C91.364 205.078 94.988 205.81 99.272 206.158C103.454 206.5 108.65 206.5 115.202 206.5H146.798C153.35 206.5 158.546 206.5 162.728 206.158C167.012 205.81 170.63 205.078 173.942 203.398C179.303 200.664 183.661 196.304 186.392 190.942C188.078 187.63 188.81 184.012 189.158 179.728C189.5 175.546 189.5 170.35 189.5 163.798V132.202C189.5 125.65 189.5 120.454 189.158 116.272C188.81 111.988 188.078 108.37 186.398 105.064C183.666 99.7008 179.305 95.3405 173.942 92.608C170.63 90.922 167.012 90.19 162.728 89.842C158.546 89.5 153.35 89.5 146.798 89.5ZM81.86 179.572C84.35 177.976 86 175.18 86 172V163C86.001 161.419 85.5856 159.866 84.7957 158.497C84.0057 157.127 82.869 155.99 81.5 155.2V140.8C82.869 140.01 84.0057 138.873 84.7957 137.503C85.5856 136.134 86.001 134.581 86 133V124C86 120.82 84.35 118.024 81.86 116.428C82.178 113.038 82.742 110.878 83.624 109.15C85.4934 105.482 88.4758 102.499 92.144 100.63C93.974 99.694 96.284 99.118 100.004 98.812C103.784 98.506 108.608 98.5 115.4 98.5H146.6C153.398 98.5 158.222 98.5 161.996 98.812C165.716 99.112 168.026 99.694 169.856 100.624C173.524 102.493 176.507 105.476 178.376 109.144C179.306 110.974 179.882 113.284 180.188 117.004C180.494 120.784 180.5 125.608 180.5 132.4V163.6C180.5 170.398 180.5 175.222 180.188 178.996C179.888 182.716 179.306 185.026 178.376 186.856C176.507 190.524 173.524 193.507 169.856 195.376C168.026 196.306 165.716 196.882 161.996 197.188C158.216 197.494 153.392 197.5 146.6 197.5H115.4C108.608 197.5 103.778 197.5 100.004 197.188C96.284 196.888 93.974 196.306 92.144 195.376C88.4758 193.507 85.4934 190.524 83.624 186.856C82.742 185.122 82.178 182.962 81.86 179.572Z" fill="#27272E"/>
<path d="M299 148H243M299 148L275 172M299 148L275 124" stroke="url(#paint0_linear_2876_1548)" stroke-width="9" stroke-linecap="round" stroke-linejoin="round"/>
<path d="M453 196H369C365.817 196 362.765 194.736 360.515 192.485C358.264 190.235 357 187.183 357 184V130C357 126.817 358.264 123.765 360.515 121.515C362.765 119.264 365.817 118 369 118H453C456.183 118 459.235 119.264 461.485 121.515C463.736 123.765 465 126.817 465 130V184C465 187.183 463.736 190.235 461.485 192.485C459.235 194.736 456.183 196 453 196Z" stroke="#27272E" stroke-width="9"/>
<path d="M438 160C437.204 160 436.441 159.684 435.879 159.121C435.316 158.559 435 157.796 435 157C435 156.204 435.316 155.441 435.879 154.879C436.441 154.316 437.204 154 438 154C438.796 154 439.559 154.316 440.121 154.879C440.684 155.441 441 156.204 441 157C441 157.796 440.684 158.559 440.121 159.121C439.559 159.684 438.796 160 438 160Z" fill="#27272E" stroke="#27272E" stroke-width="9" stroke-linecap="round" stroke-linejoin="round"/>
<path d="M447 118V109.618C446.999 107.779 446.576 105.965 445.763 104.315C444.95 102.666 443.769 101.225 442.31 100.105C440.852 98.9845 439.156 98.2144 437.352 97.8539C435.549 97.4934 433.687 97.5522 431.91 98.0258L365.91 115.624C363.354 116.305 361.095 117.811 359.484 119.909C357.873 122.006 356.999 124.577 357 127.222V130" stroke="#27272E" stroke-width="9"/>
<defs>
<linearGradient id="paint0_linear_2876_1548" x1="303" y1="148" x2="243" y2="148" gradientUnits="userSpaceOnUse">
<stop stop-color="#2C82D2"/>
<stop offset="1" stop-color="#6BC8ED"/>
</linearGradient>
</defs>
</svg>
